<svg xmlns="http://www.w3.org/2000/svg" width="30" height="30" viewBox="0 0 30 30">
    <g fill="none" fill-rule="evenodd">
        <g fill="#FFF" fill-rule="nonzero">
            <g>
                <g>
                    <path d="M13.784 5c-.213 0-.394.154-.429.364l-.423 2.59c-.508.147-.993.347-1.45.596L9.345 7.024c-.172-.124-.409-.104-.56.045l-1.69 1.69c-.15.15-.17.385-.05.557l1.504 2.15c-.253.46-.457.948-.608 1.461l-2.578.429c-.21.035-.363.217-.363.429v2.391c0 .211.15.392.358.429l2.58.457c.15.512.354 1 .606 1.46l-1.521 2.13c-.124.172-.104.409.046.559l1.69 1.692c.15.149.384.17.557.049l2.154-1.508c.458.25.944.45 1.455.6l.43 2.593c.035.21.216.363.429.363h2.391c.211 0 .392-.151.43-.36l.46-2.602c.508-.151.992-.356 1.448-.607l2.169 1.522c.173.12.408.1.557-.049l1.69-1.692c.151-.151.17-.389.046-.562l-1.547-2.146c.248-.454.447-.935.595-1.44l2.616-.458c.208-.037.36-.218.36-.429v-2.391c0-.213-.155-.395-.365-.43l-2.612-.426c-.15-.504-.349-.984-.596-1.438l1.525-2.173c.121-.173.1-.408-.048-.557l-1.692-1.69c-.15-.151-.389-.17-.561-.046l-2.141 1.54c-.456-.25-.94-.454-1.45-.604l-.455-2.602c-.036-.208-.217-.36-.429-.36h-2.391zm.37.87h1.656l.433 2.472c.03.169.156.305.323.347.636.158 1.233.41 1.778.74.15.09.338.082.479-.02l2.035-1.461 1.17 1.17-1.448 2.065c-.099.14-.106.326-.017.474.327.544.575 1.137.733 1.77.042.168.18.295.351.323l2.482.406v1.656l-2.487.436c-.17.03-.305.158-.346.325-.157.631-.405 1.225-.731 1.769-.09.148-.082.337.02.478l1.468 2.039-1.17 1.171-2.062-1.446c-.141-.099-.328-.105-.475-.015-.543.33-1.14.582-1.774.743-.166.042-.292.177-.322.346l-.439 2.472h-1.658l-.41-2.461c-.028-.172-.156-.31-.324-.351-.636-.157-1.236-.408-1.785-.737-.147-.088-.333-.082-.473.017L9.116 22.03l-1.172-1.173 1.445-2.02c.101-.142.108-.33.018-.478-.333-.55-.585-1.15-.744-1.79-.041-.166-.177-.292-.345-.322l-2.448-.435v-1.659l2.446-.406c.171-.029.309-.156.35-.324.161-.641.413-1.24.745-1.79.09-.147.083-.333-.016-.475L7.967 9.117 9.14 7.945l2.027 1.449c.14.1.328.108.476.018.546-.328 1.147-.576 1.784-.732.17-.042.298-.18.326-.353l.401-2.457zM15 11.522c-1.916 0-3.478 1.562-3.478 3.478 0 1.916 1.562 3.478 3.478 3.478 1.916 0 3.478-1.562 3.478-3.478 0-1.916-1.562-3.478-3.478-3.478zm0 .87c1.446 0 2.609 1.162 2.609 2.608 0 1.446-1.163 2.609-2.609 2.609S12.39 16.446 12.39 15s1.163-2.609 2.61-2.609z" transform="translate(-1261 -18) translate(0 -1) translate(1261 19)"/>
                </g>
            </g>
        </g>
    </g>
</svg>
