<svg xmlns="http://www.w3.org/2000/svg" width="30" height="30" viewBox="0 0 30 30">
    <g fill="none" fill-rule="evenodd">
        <g>
            <g>
                <g>
                    <path d="M0 0H30V30H0z" transform="translate(-1310 -19) translate(0 -1) translate(1310 20)"/>
                    <path fill="#FFF" fill-rule="nonzero" d="M7.895 8c-.163.018-.301.13-.352.286l-2.46 7.396c-.006.013-.01.026-.014.04l-.013.012-.013.026v.026l-.013.013v.027l-.013.013v.039c-.023.076-.023.157 0 .234v6.055c0 .23.187.416.417.416h18.333c.23 0 .417-.187.417-.416v-6.081c.03-.094.024-.195-.013-.287l-.013-.013v-.013l-.026-.052-2.474-7.435c-.056-.169-.214-.284-.39-.286H7.893zm.338.833h12.735l2.226 6.667h-5.677c-.23 0-.417.187-.417.417 0 1.385-1.114 2.5-2.5 2.5-1.385 0-2.5-1.115-2.5-2.5 0-.23-.187-.417-.416-.417H6.007l2.226-6.667zm-2.383 7.5h5.495c.215 1.631 1.568 2.917 3.255 2.917 1.688 0 3.04-1.286 3.256-2.917h5.494v5.417H5.85v-5.417z" transform="translate(-1310 -19) translate(0 -1) translate(1310 20)"/>
                </g>
            </g>
        </g>
    </g>
</svg>
