<svg xmlns="http://www.w3.org/2000/svg" width="74" height="27" viewBox="0 0 74 27"><g fill="none" fill-rule="nonzero"><path fill="#EF3E42" d="M73.297 13.943L62.583 24.969 51.868 13.943 62.583 2.92z"></path><path fill="#0067B1" d="M.135 25.945L2.5 8.878c.528-3.767 4.391-7.053 8.535-7.053 4.204 0 6.199 3.007 5.794 5.892l-.343 2.484c-.28 2.083-1.776 4.087-4.423 5.569l2.71 4.727c.311.52.437 1.32.311 2.165-.28 1.802-1.589 3.283-3.021 3.283-.778 0-1.402-.438-1.775-1.12L6.299 17.73l-.685 4.97c-.25 1.803-1.558 3.244-2.96 3.244H.135zM9.602 5.352c-.905 0-1.745.922-1.9 2.084l-.683 5.144c-.155 1.163.437 2.085 1.34 2.085s1.744-.922 1.9-2.085l.682-5.144c.157-1.162-.437-2.084-1.34-2.084zM19.47 5.67c.28-2.084 1.869-3.806 3.49-3.806 1.619 0 2.71 1.722 2.429 3.806l-1.152 8.614h3.21l1.182-8.614c.28-2.084 1.87-3.806 3.49-3.806s2.71 1.722 2.43 3.806l-2.243 16.547c-.281 2.083-1.87 3.807-3.49 3.807s-2.71-1.724-2.43-3.807l.717-5.368h-3.239l-.717 5.368c-.281 2.083-1.87 3.807-3.489 3.807h-2.93L19.471 5.67zM50.99 8.717c-.25 1.603-1.092 3.165-2.588 4.608a4.89 4.89 0 0 1 1.247 4.047l-.218 1.482c-.56 3.807-4.394 7.091-8.505 7.091h-6.512L36.813 8.84c.531-3.767 4.394-7.052 8.536-7.052 4.205 0 6.231 3.004 5.794 5.89l-.153 1.04zm-8.008 5.41c-1.029 0-1.994 1.08-2.181 2.404l-.467 3.445c-.187 1.322.498 2.403 1.526 2.403s2.026-1.081 2.212-2.403l.468-3.445c.188-1.323-.531-2.404-1.558-2.404zm1.247-8.775c-1.028 0-1.964 1.082-2.182 2.404l-.373 2.364c-.22 1.322.499 2.404 1.527 2.404s1.993-1.082 2.212-2.404l.373-2.364c.218-1.322-.53-2.404-1.557-2.404z"></path></g></svg>