<svg xmlns="http://www.w3.org/2000/svg" width="30" height="30" viewBox="0 0 30 30">
    <g fill="none" fill-rule="evenodd">
        <g fill="#FFF" fill-rule="nonzero">
            <g>
                <g>
                    <g>
                        <g>
                            <path d="M11.845.476c-.24.03-.418.235-.416.476v3.363c-5.482.168-8.438 3.07-9.896 5.953C.053 13.19.002 16.04 0 16.13v.06c-.007.262.199.483.461.49.263.008.484-.198.491-.46v-.03c.004-.045.11-1.487 1.474-3.021 1.339-1.505 3.952-3.023 9.003-3.125v3.288c0 .183.104.35.27.43.165.08.36.058.503-.058l7.62-6.19c.113-.091.178-.227.178-.372s-.065-.281-.179-.372L12.202.58c-.1-.082-.228-.12-.357-.105zm.536 1.473l6.384 5.194-6.384 5.193V9.524c0-.262-.214-.476-.476-.476-5.597 0-8.614 1.72-10.194 3.497-.06.067-.093.126-.149.193.201-.655.466-1.354.819-2.053 1.39-2.746 4.042-5.447 9.524-5.447.262 0 .476-.214.476-.476V1.949z" transform="translate(-626 -803) translate(434 743) translate(0 46) translate(192 14) translate(5 6)"/>
                        </g>
                    </g>
                </g>
            </g>
        </g>
    </g>
</svg>
