<svg xmlns="http://www.w3.org/2000/svg" width="30" height="30" viewBox="0 0 30 30">
    <g fill="none" fill-rule="evenodd">
        <g fill="#FFF" fill-rule="nonzero">
            <g>
                <g>
                    <g>
                        <g>
                            <path d="M14.381 0c-.076.002-.15.017-.225.038-.297.083-.564.28-.775.55L13.369.6l-3.34 4.675C7.978 4.8 5.739 5.341 4.14 6.937c-.155.157-.155.407 0 .563l2.976 2.962L.088 19.35c-.128.16-.115.39.029.534.145.144.375.157.534.029l8.879-7.025 2.976 2.962c.156.155.406.155.562 0 1.621-1.618 2.151-3.9 1.639-5.974l4.689-3.188.012-.012c.274-.203.463-.455.55-.75.088-.295.044-.669-.2-.913L15.057.25c-.12-.123-.28-.192-.438-.225-.08-.017-.161-.026-.238-.025zm.075.8c.014.002.016.003.025.013l4.715 4.762c.017.017.026.022 0 .112-.027.088-.12.225-.263.338l-.012.012-4.865 3.313-.012.012-.025.013c-.133.103-.188.276-.138.437.524 1.755.124 3.689-1.138 5.15l-7.715-7.7C6.47 6.02 8.38 5.608 10.118 6.1c.165.045.342-.02.437-.163l3.451-4.862.013-.012c.115-.142.26-.225.35-.25.047-.013.073-.014.087-.013zM7.68 11.037l1.288 1.275-6.115 4.837 4.827-6.112z" transform="translate(-668 -803) translate(434 743) translate(0 46) translate(234 14) translate(5 5)"/>
                        </g>
                    </g>
                </g>
            </g>
        </g>
    </g>
</svg>
